<?xml version="1.0" standalone="no"?>
<!DOCTYPE svg PUBLIC "-//W3C//DTD SVG 20010904//EN"
 "http://www.w3.org/TR/2001/REC-SVG-20010904/DTD/svg10.dtd">
<svg version="1.0" xmlns="http://www.w3.org/2000/svg"
 width="512.000000pt" height="512.000000pt" viewBox="0 0 512.000000 512.000000"
 preserveAspectRatio="xMidYMid meet">
<metadata>
Created by potrace 1.14, written by Peter Selinger 2001-2017
</metadata>
<g transform="translate(0.000000,512.000000) scale(0.100000,-0.100000)"
fill="#000000" stroke="none">
<path d="M2077 5113 c-10 -20 2 -2068 13 -2068 1 0 3 -8 5 -18 8 -40 60 -127
99 -165 35 -34 144 -104 161 -102 3 0 6 0 8 -1 1 0 11 -3 22 -6 11 -3 429 -6
928 -7 703 -1 910 -4 915 -13 5 -7 7 -42 6 -78 -1 -57 1 -66 21 -79 22 -15 28
-12 107 44 45 33 117 86 158 118 112 87 111 90 -71 227 -141 107 -188 130
-206 102 -4 -6 -8 -42 -9 -80 0 -37 -4 -71 -8 -75 -4 -3 -250 -7 -547 -7 -586
0 -554 -3 -523 56 8 17 17 40 20 50 2 10 7 29 10 42 4 12 7 482 8 1045 l1
1023 -85 -3 -85 -3 -1 -1000 c0 -773 -3 -1010 -13 -1045 -9 -32 -27 -59 -61
-91 -27 -25 -55 -46 -62 -47 -7 0 -24 -4 -38 -7 -29 -9 -395 -10 -426 -2 -43
11 -103 47 -122 74 -50 70 -48 29 -47 1111 l0 1012 -87 0 c-48 0 -89 -3 -91
-7z"/>
<path d="M0 2960 l0 -86 918 1 c547 0 922 -3 930 -9 7 -5 15 -6 18 -3 13 13
101 -54 124 -95 32 -55 32 -57 33 -289 l1 -197 -29 -58 c-32 -61 -79 -96 -146
-110 -19 -4 -441 -7 -939 -8 l-905 -1 -3 -85 -3 -85 928 1 c510 1 939 4 953 8
14 3 35 8 46 10 12 2 40 14 63 25 22 12 41 18 42 14 1 -5 2 -252 3 -551 0
-355 -2 -542 -9 -543 -5 -1 -32 -2 -60 -4 -27 -1 -53 -3 -57 -5 -5 -1 -11 -3
-15 -4 -20 -4 -33 -19 -33 -39 0 -13 49 -87 113 -172 145 -194 139 -193 254
-40 121 160 133 180 138 207 7 37 -17 51 -91 53 -35 1 -67 5 -71 9 -4 4 -8
413 -9 909 -1 496 -4 912 -8 925 -3 12 -8 31 -11 43 -8 37 -57 111 -101 154
-42 41 -125 90 -174 102 -14 3 -447 6 -962 7 l-938 2 0 -86z"/>
<path d="M2765 2392 c-3 -3 -22 -6 -42 -8 -21 -1 -49 -5 -63 -9 -75 -19 -79
-22 -78 -66 0 -22 4 -41 8 -44 4 -2 6 -15 5 -29 -3 -21 0 -24 23 -19 43 8 57
11 57 13 0 10 228 16 263 7 52 -13 119 -72 129 -112 1 -5 5 -21 8 -35 11 -42
12 -124 2 -137 -5 -8 -16 -9 -26 -5 -9 5 -23 8 -31 7 -8 -1 -19 2 -25 5 -12 8
-199 5 -240 -4 -131 -28 -214 -86 -258 -180 -19 -42 -23 -65 -21 -126 2 -95 7
-114 41 -169 28 -45 89 -101 114 -104 8 -2 20 -6 26 -10 13 -8 33 -13 88 -23
45 -8 246 -11 250 -4 2 4 25 6 50 5 25 -1 48 1 50 5 3 4 19 6 37 5 18 -2 38 0
43 3 6 4 19 7 31 8 52 2 50 -15 48 380 -1 203 -4 379 -7 392 -12 49 -57 128
-89 158 -37 34 -108 80 -108 69 0 -4 -6 -3 -12 3 -7 5 -29 13 -48 17 -41 8
-219 13 -225 7z m283 -576 c17 -4 33 -13 33 -19 6 -56 2 -300 -5 -304 -30 -19
-233 -17 -315 2 -35 8 -106 71 -109 96 -3 25 -5 83 -3 106 1 31 54 88 93 103
18 6 39 15 47 19 18 9 217 7 259 -3z"/>
<path d="M3787 2394 c-1 -1 -15 -4 -32 -7 -93 -17 -166 -56 -235 -126 -49 -50
-107 -146 -115 -190 -2 -9 -4 -16 -6 -16 -1 0 -3 -9 -5 -20 -1 -11 -6 -36 -9
-55 -4 -19 -7 -73 -7 -120 -1 -78 1 -99 17 -167 3 -13 7 -32 9 -42 27 -119
186 -274 304 -296 15 -3 38 -8 52 -11 32 -8 233 -8 284 0 21 4 46 10 55 15 9
5 21 10 26 10 49 7 62 20 56 54 -1 4 -4 24 -7 45 -4 20 -7 43 -7 50 0 8 -7 10
-16 7 -9 -4 -25 -9 -36 -11 -43 -11 -50 -13 -50 -14 0 -8 -235 -18 -250 -11
-11 6 -31 11 -56 15 -8 1 -37 15 -63 30 -48 28 -115 116 -121 160 -5 39 -16
89 -20 97 -14 21 47 25 357 24 229 -1 339 2 341 9 4 13 0 158 -6 201 -14 100
-48 181 -101 242 -43 50 -143 108 -201 118 -40 7 -153 14 -158 9z m123 -155
c62 -16 140 -106 156 -178 11 -48 11 -100 0 -104 -10 -3 -479 -1 -498 2 -7 1
-4 55 3 71 1 3 3 10 4 15 2 17 36 78 62 113 22 29 89 73 121 78 8 1 16 4 18 6
4 5 114 2 134 -3z"/>
</g>
</svg>
