<svg width="2000" height="1450" xmlns="http://www.w3.org/2000/svg" xml:space="preserve" version="1.1">

 <g>
  <title>Layer 1</title>
  <path id="svg_1" stroke-miterlimit="10" stroke-width="2" stroke="#C3C3C9" fill="#FFFFFF" d="m1482.4,504.5l-274,0c-21,0 -38,-17 -38,-38l0,-274c0,-21 17,-38 38,-38l274,0c21,0 38,17 38,38l0,274c0,21 -17,38 -38,38z" class="st0"/>
  <path id="svg_2" stroke-miterlimit="10" stroke-width="2" stroke="#C3C3C9" fill="#FFFFFF" d="m1891.7,504.5l-274,0c-21,0 -38,-17 -38,-38l0,-274c0,-21 17,-38 38,-38l274,0c21,0 38,17 38,38l0,274c0,21 -17,38 -38,38z" class="st0"/>
  <path id="svg_3" stroke-miterlimit="10" stroke-width="2" stroke="#C3C3C9" fill="#FFFFFF" d="m1482.4,909.9l-274,0c-21,0 -38,-17 -38,-38l0,-274c0,-21 17,-38 38,-38l274,0c21,0 38,17 38,38l0,274c0,21 -17,38 -38,38z" class="st0"/>
  <path id="svg_4" stroke-miterlimit="10" stroke-width="2" stroke="#C3C3C9" fill="#FFFFFF" d="m71.3,1135l0,-565.4c0,-21 17,-38 38,-38l811.7,0c21,0 38,17 38,38l0,565.4c0,21 -17,38 -38,38l-811.7,0c-21,0 -38,-17.1 -38,-38z" class="st0"/>
  <path id="svg_6" stroke-miterlimit="10" stroke-width="2" stroke="#C3C3C9" fill="#FFFFFF" d="m202.5,384.5l0,-124.1c0,-21 17,-38 38,-38l811.7,0c21,0 38,17 38,38l0,124.1c0,21 -17,38 -38,38l-811.8,0c-20.9,0 -37.9,-17 -37.9,-38z" class="st0"/>
  <path id="svg_7" stroke-miterlimit="10" stroke-width="2" stroke="#C3C3C9" fill="#FFFFFF" d="m1891.7,909.9l-274,0c-21,0 -38,-17 -38,-38l0,-274c0,-21 17,-38 38,-38l274,0c21,0 38,17 38,38l0,274c0,21 -17,38 -38,38z" class="st0"/>
  <g id="svg_8">
   <path id="svg_9" fill="#41B883" d="m1342.4,333.2l-41.7,0l0,-8.2l19.7,-21c2.7,-2.9 4.7,-5.5 6,-7.7s1.9,-4.3 1.9,-6.3c0,-2.7 -0.7,-4.8 -2,-6.4c-1.4,-1.5 -3.3,-2.3 -5.8,-2.3c-2.7,0 -4.9,0.9 -6.4,2.8c-1.6,1.9 -2.4,4.3 -2.4,7.4l-12.1,0c0,-3.7 0.9,-7.1 2.7,-10.1c1.8,-3.1 4.3,-5.5 7.5,-7.2s6.9,-2.6 11,-2.6c6.3,0 11.1,1.5 14.6,4.5s5.2,7.2 5.2,12.7c0,3 -0.8,6.1 -2.3,9.2c-1.6,3.1 -4.2,6.7 -8,10.9l-13.8,14.6l26.1,0l0,9.7l-0.2,0z" class="st1"/>
   <path id="svg_10" fill="#41B883" d="m1385.4,310.4l6.9,0l0,9.7l-6.9,0l0,13.1l-12.1,0l0,-13.1l-24.9,0l-0.5,-7.6l25.3,-40l12.2,0l0,37.9zm-25.5,0l13.4,0l0,-21.5l-0.8,1.4l-12.6,20.1z" class="st1"/>
  </g>
  <g id="svg_11">
   <path id="svg_12" fill="#A2A5B9" d="m1290.6,360.3l2.9,0l0,15.3c0,2.1 -0.6,3.7 -1.9,4.8c-1.2,1.2 -2.9,1.7 -5,1.7s-3.8,-0.5 -5,-1.6s-1.8,-2.6 -1.8,-4.6l2.8,0c0,1.2 0.3,2.2 1,2.9c0.7,0.7 1.7,1 2.9,1c1.2,0 2.1,-0.4 2.8,-1.1c0.7,-0.7 1.1,-1.8 1.1,-3.1l0,-15.3l0.2,0z" class="st2"/>
   <path id="svg_13" fill="#A2A5B9" d="m1309.9,376.2l-9,0l-2,5.6l-2.9,0l8.2,-21.6l2.5,0l8.2,21.6l-2.9,0l-2.1,-5.6zm-8.2,-2.3l7.3,0l-3.7,-10.1l-3.6,10.1z" class="st2"/>
   <path id="svg_14" fill="#A2A5B9" d="m1334.3,381.8l-2.9,0l-10.8,-16.6l0,16.6l-2.9,0l0,-21.6l2.9,0l10.9,16.7l0,-16.7l2.8,0l0,21.6z" class="st2"/>
   <path id="svg_15" fill="#A2A5B9" d="m1354.5,360.3l0,14.7c0,2 -0.6,3.7 -1.9,5s-3,2 -5.2,2.2l-0.8,0c-2.4,0 -4.2,-0.6 -5.6,-1.9s-2.1,-3 -2.1,-5.3l0,-14.7l2.8,0l0,14.6c0,1.6 0.4,2.8 1.3,3.6c0.9,0.9 2.1,1.3 3.7,1.3s2.8,-0.4 3.7,-1.3s1.3,-2.1 1.3,-3.6l0,-14.6l2.8,0l0,0z" class="st2"/>
   <path id="svg_16" fill="#A2A5B9" d="m1370.6,376.2l-9,0l-2,5.6l-2.9,0l8.2,-21.6l2.5,0l8.2,21.6l-2.9,0l-2.1,-5.6zm-8.2,-2.3l7.3,0l-3.7,-10.1l-3.6,10.1z" class="st2"/>
   <path id="svg_17" fill="#A2A5B9" d="m1386.4,373.1l-5.1,0l0,8.7l-2.9,0l0,-21.6l7.1,0c2.4,0 4.3,0.6 5.6,1.7s2,2.7 2,4.8c0,1.3 -0.4,2.5 -1.1,3.5s-1.7,1.7 -3,2.2l5.1,9.1l0,0.2l-3,0l-4.7,-8.6zm-5.1,-2.3l4.4,0c1.4,0 2.5,-0.4 3.4,-1.1s1.3,-1.7 1.3,-2.9c0,-1.3 -0.4,-2.4 -1.2,-3.1c-0.8,-0.7 -1.9,-1.1 -3.4,-1.1l-4.4,0l0,8.2l-0.1,0z" class="st2"/>
   <path id="svg_18" fill="#A2A5B9" d="m1403,371.1l5.6,-10.8l3.2,0l-7.4,13.5l0,8l-2.8,0l0,-8l-7.4,-13.5l3.3,0l5.5,10.8z" class="st2"/>
  </g>
  <g id="svg_19">
   <path id="svg_20" fill="#41B883" d="m1739.3,333.2l-12.1,0l0,-46.5l-14.4,4.5l0,-9.8l25.2,-9l1.3,0l0,60.8z" class="st1"/>
   <path id="svg_21" fill="#41B883" d="m1800.7,333.2l-41.7,0l0,-8.2l19.7,-21c2.7,-2.9 4.7,-5.5 6,-7.7s1.9,-4.3 1.9,-6.3c0,-2.7 -0.7,-4.8 -2,-6.4c-1.4,-1.5 -3.3,-2.3 -5.8,-2.3c-2.7,0 -4.9,0.9 -6.4,2.8c-1.6,1.9 -2.4,4.3 -2.4,7.4l-12.1,0c0,-3.7 0.9,-7.1 2.7,-10.1c1.8,-3.1 4.3,-5.5 7.5,-7.2s6.9,-2.6 11,-2.6c6.3,0 11.1,1.5 14.6,4.5s5.2,7.2 5.2,12.7c0,3 -0.8,6.1 -2.3,9.2s-4.2,6.7 -8,10.9l-13.8,14.6l26.1,0l0,9.7l-0.2,0z" class="st1"/>
  </g>
  <g id="svg_22">
   <path id="svg_23" fill="#A2A5B9" d="m1678.3,372.2c-2.4,-0.7 -4.2,-1.6 -5.3,-2.6c-1.1,-1 -1.7,-2.3 -1.7,-3.8c0,-1.7 0.7,-3.1 2,-4.2c1.4,-1.1 3.1,-1.7 5.3,-1.7c1.5,0 2.8,0.3 4,0.9s2.1,1.4 2.7,2.4s1,2.1 1,3.3l-2.9,0c0,-1.3 -0.4,-2.3 -1.2,-3.1s-2,-1.1 -3.5,-1.1c-1.4,0 -2.5,0.3 -3.3,0.9s-1.2,1.5 -1.2,2.6c0,0.9 0.4,1.6 1.1,2.2s2,1.2 3.8,1.7s3.2,1.1 4.2,1.7s1.8,1.3 2.3,2.1c0.5,0.8 0.7,1.8 0.7,2.9c0,1.7 -0.7,3.1 -2,4.2c-1.4,1.1 -3.2,1.6 -5.5,1.6c-1.5,0 -2.9,-0.3 -4.1,-0.9c-1.3,-0.6 -2.3,-1.3 -3,-2.3s-1,-2.1 -1,-3.4l2.9,0c0,1.3 0.5,2.3 1.4,3.1s2.2,1.1 3.9,1.1c1.5,0 2.7,-0.3 3.4,-0.9s1.2,-1.4 1.2,-2.5s-0.4,-1.9 -1.1,-2.4s-2.1,-1.2 -4.1,-1.8z" class="st2"/>
   <path id="svg_24" fill="#A2A5B9" d="m1702.2,371.9l-9.3,0l0,7.6l10.8,0l0,2.3l-13.7,0l0,-21.6l13.5,0l0,2.3l-10.7,0l0,6.9l9.3,0l0.1,2.5l0,0z" class="st2"/>
   <path id="svg_25" fill="#A2A5B9" d="m1710,373.4l0,8.4l-2.8,0l0,-21.6l7.9,0c2.4,0 4.2,0.6 5.5,1.8c1.3,1.2 2,2.8 2,4.8c0,2.1 -0.7,3.7 -2,4.8c-1.3,1.1 -3.2,1.7 -5.6,1.7l-5,0l0,0.1zm0,-2.3l5.1,0c1.5,0 2.7,-0.4 3.5,-1.1s1.2,-1.8 1.2,-3.1c0,-1.3 -0.4,-2.3 -1.2,-3.1c-0.8,-0.8 -1.9,-1.2 -3.3,-1.2l-5.3,0l0,8.5l0,0z" class="st2"/>
   <path id="svg_26" fill="#A2A5B9" d="m1741.2,362.6l-6.9,0l0,19.2l-2.8,0l0,-19.2l-6.9,0l0,-2.3l16.7,0l-0.1,2.3l0,0z" class="st2"/>
   <path id="svg_27" fill="#A2A5B9" d="m1756.6,371.9l-9.3,0l0,7.6l10.8,0l0,2.3l-13.7,0l0,-21.6l13.5,0l0,2.3l-10.7,0l0,6.9l9.3,0l0.1,2.5l0,0z" class="st2"/>
   <path id="svg_28" fill="#A2A5B9" d="m1765.3,360.3l7,17.6l7,-17.6l3.7,0l0,21.6l-2.8,0l0,-8.4l0.3,-9.1l-7.1,17.5l-2.2,0l-7.1,-17.4l0.3,9l0,8.4l-2.8,0l0,-21.6l3.7,0z" class="st2"/>
   <path id="svg_29" fill="#A2A5B9" d="m1788.1,381.8l0,-21.6l7,0c2.3,0 4.1,0.5 5.3,1.5c1.2,1 1.8,2.4 1.8,4.3c0,1 -0.3,1.9 -0.9,2.7s-1.4,1.4 -2.3,1.8c1.2,0.3 2.1,0.9 2.8,1.9c0.7,0.9 1,2 1,3.3c0,1.9 -0.6,3.5 -1.9,4.6s-3,1.7 -5.3,1.7l-7.5,0l0,-0.2zm2.9,-12.3l4.3,0c1.2,0 2.2,-0.3 3,-0.9s1.1,-1.5 1.1,-2.5c0,-1.2 -0.3,-2 -1,-2.6c-0.7,-0.5 -1.7,-0.8 -3.2,-0.8l-4.2,0l0,6.8l0,0zm0,2.2l0,7.8l4.7,0c1.3,0 2.4,-0.3 3.1,-1c0.8,-0.7 1.1,-1.6 1.1,-2.8c0,-2.6 -1.4,-3.9 -4.2,-3.9l-4.7,0l0,-0.1z" class="st2"/>
   <path id="svg_30" fill="#A2A5B9" d="m1819.2,371.9l-9.3,0l0,7.6l10.8,0l0,2.3l-13.7,0l0,-21.6l13.5,0l0,2.3l-10.7,0l0,6.9l9.3,0l0.1,2.5l0,0z" class="st2"/>
   <path id="svg_31" fill="#A2A5B9" d="m1832.1,373.1l-5.1,0l0,8.7l-2.9,0l0,-21.6l7.1,0c2.4,0 4.3,0.6 5.6,1.7s2,2.7 2,4.8c0,1.3 -0.4,2.5 -1.1,3.5s-1.7,1.7 -3,2.2l5.1,9.1l0,0.2l-3,0l-4.7,-8.6zm-5,-2.3l4.4,0c1.4,0 2.5,-0.4 3.4,-1.1c0.8,-0.7 1.3,-1.7 1.3,-2.9c0,-1.3 -0.4,-2.4 -1.2,-3.1c-0.8,-0.7 -1.9,-1.1 -3.4,-1.1l-4.4,0l0,8.2l-0.1,0z" class="st2"/>
  </g>
  <g id="svg_32">
   <path id="svg_33" fill="#41B883" d="m1739.3,734.2l-12.1,0l0,-46.5l-14.4,4.5l0,-9.8l25.2,-9l1.3,0l0,60.8z" class="st1"/>
   <path id="svg_34" fill="#41B883" d="m1760.9,704.3l3.5,-30.9l34.1,0l0,10.1l-24.2,0l-1.5,13.1c2.9,-1.5 5.9,-2.3 9.1,-2.3c5.8,0 10.3,1.8 13.6,5.4c3.3,3.6 4.9,8.6 4.9,15.1c0,3.9 -0.8,7.4 -2.5,10.5s-4,5.5 -7.1,7.2s-6.7,2.6 -10.9,2.6c-3.7,0 -7.1,-0.7 -10.2,-2.2s-5.6,-3.6 -7.4,-6.3s-2.8,-5.8 -2.9,-9.2l11.9,0c0.3,2.5 1.1,4.5 2.7,5.9c1.5,1.4 3.5,2.1 5.9,2.1c2.7,0 4.8,-1 6.3,-2.9s2.2,-4.7 2.2,-8.3c0,-3.4 -0.8,-6.1 -2.5,-7.9s-4.1,-2.8 -7.2,-2.8c-2.9,0 -5.2,0.8 -7,2.3l-1.2,1.1l-9.6,-2.6z" class="st1"/>
  </g>
  <g id="svg_35">
   <path id="svg_36" fill="#A2A5B9" d="m1694.1,782.8l-2.9,0l-10.8,-16.6l0,16.6l-2.9,0l0,-21.6l2.9,0l10.9,16.7l0,-16.7l2.8,0l0,21.6z" class="st2"/>
   <path id="svg_37" fill="#A2A5B9" d="m1715.7,772.7c0,2.1 -0.4,4 -1.1,5.5c-0.7,1.6 -1.7,2.8 -3,3.6s-2.8,1.2 -4.6,1.2c-1.7,0 -3.2,-0.4 -4.5,-1.3c-1.3,-0.8 -2.3,-2 -3.1,-3.6c-0.7,-1.5 -1.1,-3.3 -1.1,-5.4l0,-1.6c0,-2.1 0.4,-3.9 1.1,-5.5s1.7,-2.8 3.1,-3.6c1.3,-0.8 2.8,-1.3 4.5,-1.3s3.2,0.4 4.6,1.3c1.3,0.8 2.3,2 3,3.6s1.1,3.4 1.1,5.5l0,1.6zm-2.8,-1.4c0,-2.6 -0.5,-4.5 -1.5,-5.9s-2.5,-2.1 -4.3,-2.1s-3.2,0.7 -4.2,2.1c-1,1.4 -1.6,3.3 -1.6,5.7l0,1.6c0,2.5 0.5,4.4 1.6,5.8s2.5,2.1 4.3,2.1s3.3,-0.7 4.3,-2s1.5,-3.3 1.6,-5.8l0,-1.5l-0.2,0z" class="st2"/>
   <path id="svg_38" fill="#A2A5B9" d="m1726.8,779l6.2,-17.8l3.1,0l-8,21.6l-2.5,0l-8,-21.6l3.1,0l6.1,17.8z" class="st2"/>
   <path id="svg_39" fill="#A2A5B9" d="m1751.1,772.8l-9.3,0l0,7.6l10.8,0l0,2.3l-13.7,0l0,-21.6l13.5,0l0,2.3l-10.7,0l0,6.9l9.3,0l0.1,2.5l0,0z" class="st2"/>
   <path id="svg_40" fill="#A2A5B9" d="m1759.8,761.2l7,17.6l7,-17.6l3.7,0l0,21.6l-2.8,0l0,-8.4l0.3,-9.1l-7.1,17.5l-2.2,0l-7.1,-17.4l0.3,9l0,8.4l-2.8,0l0,-21.6l3.7,0z" class="st2"/>
   <path id="svg_41" fill="#A2A5B9" d="m1782.6,782.8l0,-21.6l7,0c2.3,0 4.1,0.5 5.3,1.5c1.2,1 1.8,2.4 1.8,4.3c0,1 -0.3,1.9 -0.9,2.7s-1.4,1.4 -2.3,1.8c1.2,0.3 2.1,0.9 2.8,1.9c0.7,0.9 1,2 1,3.3c0,1.9 -0.6,3.5 -1.9,4.6s-3,1.7 -5.3,1.7l-7.5,0l0,-0.2zm2.8,-12.4l4.3,0c1.2,0 2.2,-0.3 3,-0.9s1.1,-1.5 1.1,-2.5c0,-1.2 -0.3,-2 -1,-2.6c-0.7,-0.5 -1.7,-0.8 -3.2,-0.8l-4.2,0l0,6.8l0,0zm0,2.3l0,7.8l4.7,0c1.3,0 2.4,-0.3 3.1,-1s1.1,-1.6 1.1,-2.8c0,-2.6 -1.4,-3.9 -4.2,-3.9l-4.7,-0.1l0,0z" class="st2"/>
   <path id="svg_42" fill="#A2A5B9" d="m1813.7,772.8l-9.3,0l0,7.6l10.8,0l0,2.3l-13.7,0l0,-21.6l13.5,0l0,2.3l-10.7,0l0,6.9l9.3,0l0.1,2.5l0,0z" class="st2"/>
   <path id="svg_43" fill="#A2A5B9" d="m1826.6,774.1l-5.1,0l0,8.7l-2.9,0l0,-21.6l7.1,0c2.4,0 4.3,0.6 5.6,1.7c1.3,1.1 2,2.7 2,4.8c0,1.3 -0.4,2.5 -1.1,3.5s-1.7,1.7 -3,2.2l5.1,9.1l0,0.2l-3,0l-4.7,-8.6zm-5.1,-2.4l4.4,0c1.4,0 2.5,-0.4 3.4,-1.1c0.8,-0.7 1.3,-1.7 1.3,-2.9c0,-1.3 -0.4,-2.4 -1.2,-3.1c-0.8,-0.7 -1.9,-1.1 -3.4,-1.1l-4.4,0l0,8.2l-0.1,0z" class="st2"/>
  </g>
  <g id="svg_44">
   <path id="svg_45" fill="#41B883" d="m1341.6,709.1c0,8.4 -1.7,14.8 -5.2,19.3s-8.6,6.7 -15.3,6.7c-6.6,0 -11.7,-2.2 -15.2,-6.6c-3.5,-4.4 -5.3,-10.6 -5.4,-18.8l0,-11.2c0,-8.5 1.8,-14.9 5.3,-19.3c3.5,-4.4 8.6,-6.6 15.2,-6.6s11.7,2.2 15.2,6.5c3.5,4.4 5.3,10.6 5.4,18.8l0,11.2zm-12.1,-12.3c0,-5 -0.7,-8.7 -2.1,-11s-3.5,-3.4 -6.4,-3.4c-2.8,0 -4.9,1.1 -6.3,3.3c-1.3,2.2 -2.1,5.6 -2.1,10.3l0,14.8c0,5 0.7,8.6 2,11.1c1.3,2.4 3.5,3.6 6.5,3.6c2.9,0 5.1,-1.2 6.4,-3.5s2,-5.8 2,-10.6l0,-14.6z" class="st1"/>
   <path id="svg_46" fill="#41B883" d="m1362,698.5l6.4,0c3.1,0 5.3,-0.8 6.8,-2.3s2.2,-3.6 2.2,-6.1c0,-2.4 -0.7,-4.4 -2.2,-5.7c-1.5,-1.4 -3.5,-2 -6,-2c-2.3,0 -4.2,0.6 -5.8,1.9c-1.6,1.3 -2.3,2.9 -2.3,4.9l-12.1,0c0,-3.2 0.9,-6 2.6,-8.5s4.1,-4.5 7.2,-5.9s6.5,-2.1 10.2,-2.1c6.4,0 11.5,1.5 15.1,4.6s5.5,7.3 5.5,12.7c0,2.8 -0.8,5.3 -2.5,7.7c-1.7,2.3 -3.9,4.1 -6.7,5.4c3.4,1.2 6,3.1 7.7,5.5s2.5,5.3 2.5,8.7c0,5.4 -2,9.7 -5.9,13s-9.1,4.9 -15.6,4.9c-6.1,0 -11,-1.6 -14.9,-4.8s-5.8,-7.4 -5.8,-12.7l12.1,0c0,2.3 0.9,4.1 2.6,5.6c1.7,1.4 3.8,2.2 6.3,2.2c2.9,0 5.1,-0.8 6.7,-2.3s2.4,-3.5 2.4,-6c0,-6.1 -3.3,-9.1 -10,-9.1l-6.4,0l-0.1,-9.6l0,0z" class="st1"/>
  </g>
  <g id="svg_47">
   <path id="svg_48" fill="#A2A5B9" d="m1298,772.7c0,2.1 -0.4,4 -1.1,5.5c-0.7,1.6 -1.7,2.8 -3,3.6s-2.8,1.2 -4.6,1.2c-1.7,0 -3.2,-0.4 -4.5,-1.3c-1.3,-0.8 -2.3,-2 -3.1,-3.6c-0.7,-1.5 -1.1,-3.3 -1.1,-5.4l0,-1.6c0,-2.1 0.4,-3.9 1.1,-5.5s1.7,-2.8 3.1,-3.6c1.3,-0.8 2.8,-1.3 4.5,-1.3s3.2,0.4 4.6,1.3c1.3,0.8 2.3,2 3,3.6s1.1,3.4 1.1,5.5l0,1.6zm-2.8,-1.4c0,-2.6 -0.5,-4.5 -1.5,-5.9s-2.5,-2.1 -4.3,-2.1s-3.2,0.7 -4.2,2.1c-1,1.4 -1.6,3.3 -1.6,5.7l0,1.6c0,2.5 0.5,4.4 1.6,5.8s2.5,2.1 4.3,2.1s3.3,-0.7 4.3,-2s1.5,-3.3 1.6,-5.8l0,-1.5l-0.2,0z" class="st2"/>
   <path id="svg_49" fill="#A2A5B9" d="m1318.1,775.9c-0.3,2.3 -1.1,4 -2.5,5.3c-1.4,1.2 -3.3,1.9 -5.6,1.9c-2.5,0 -4.6,-0.9 -6.1,-2.7s-2.3,-4.3 -2.3,-7.3l0,-2.1c0,-2 0.4,-3.8 1.1,-5.3s1.7,-2.7 3,-3.5s2.8,-1.2 4.6,-1.2c2.3,0 4.1,0.6 5.5,1.9c1.4,1.3 2.2,3 2.4,5.3l-2.9,0c-0.2,-1.7 -0.8,-3 -1.6,-3.7s-2,-1.2 -3.5,-1.2c-1.8,0 -3.2,0.7 -4.3,2c-1,1.3 -1.5,3.3 -1.5,5.7l0,2.1c0,2.3 0.5,4.2 1.5,5.6c1,1.4 2.3,2.1 4.1,2.1c1.6,0 2.8,-0.4 3.6,-1.1c0.8,-0.7 1.4,-2 1.7,-3.7l2.8,-0.1l0,0z" class="st2"/>
   <path id="svg_50" fill="#A2A5B9" d="m1336.4,763.6l-6.9,0l0,19.2l-2.8,0l0,-19.2l-6.9,0l0,-2.3l16.7,0l-0.1,2.3l0,0z" class="st2"/>
   <path id="svg_51" fill="#A2A5B9" d="m1355.8,772.7c0,2.1 -0.4,4 -1.1,5.5c-0.7,1.6 -1.7,2.8 -3,3.6s-2.8,1.2 -4.6,1.2c-1.7,0 -3.2,-0.4 -4.5,-1.3c-1.3,-0.8 -2.3,-2 -3.1,-3.6c-0.7,-1.5 -1.1,-3.3 -1.1,-5.4l0,-1.6c0,-2.1 0.4,-3.9 1.1,-5.5s1.7,-2.8 3.1,-3.6c1.3,-0.8 2.8,-1.3 4.5,-1.3s3.2,0.4 4.6,1.3c1.3,0.8 2.3,2 3,3.6s1.1,3.4 1.1,5.5l0,1.6zm-2.8,-1.4c0,-2.6 -0.5,-4.5 -1.5,-5.9s-2.5,-2.1 -4.3,-2.1s-3.2,0.7 -4.2,2.1c-1,1.4 -1.6,3.3 -1.6,5.7l0,1.6c0,2.5 0.5,4.4 1.6,5.8s2.5,2.1 4.3,2.1s3.3,-0.7 4.3,-2s1.5,-3.3 1.6,-5.8l0,-1.5l-0.2,0z" class="st2"/>
   <path id="svg_52" fill="#A2A5B9" d="m1360.1,782.8l0,-21.6l7,0c2.3,0 4.1,0.5 5.3,1.5c1.2,1 1.8,2.4 1.8,4.3c0,1 -0.3,1.9 -0.9,2.7s-1.4,1.4 -2.3,1.8c1.2,0.3 2.1,0.9 2.8,1.9c0.7,0.9 1,2 1,3.3c0,1.9 -0.6,3.5 -1.9,4.6s-3,1.7 -5.3,1.7l-7.5,0l0,-0.2zm2.8,-12.4l4.3,0c1.2,0 2.2,-0.3 3,-0.9s1.1,-1.5 1.1,-2.5c0,-1.2 -0.3,-2 -1,-2.6c-0.7,-0.5 -1.7,-0.8 -3.2,-0.8l-4.2,0l0,6.8l0,0zm0,2.3l0,7.8l4.7,0c1.3,0 2.4,-0.3 3.1,-1c0.8,-0.7 1.1,-1.6 1.1,-2.8c0,-2.6 -1.4,-3.9 -4.2,-3.9l-4.7,-0.1l0,0z" class="st2"/>
   <path id="svg_53" fill="#A2A5B9" d="m1391.1,772.8l-9.3,0l0,7.6l10.8,0l0,2.3l-13.7,0l0,-21.6l13.5,0l0,2.3l-10.7,0l0,6.9l9.3,0l0.1,2.5l0,0z" class="st2"/>
   <path id="svg_54" fill="#A2A5B9" d="m1404.1,774.1l-5.1,0l0,8.7l-2.9,0l0,-21.6l7.1,0c2.4,0 4.3,0.6 5.6,1.7c1.3,1.1 2,2.7 2,4.8c0,1.3 -0.4,2.5 -1.1,3.5s-1.7,1.7 -3,2.2l5.1,9.1l0,0.2l-3,0l-4.7,-8.6zm-5.1,-2.4l4.4,0c1.4,0 2.5,-0.4 3.4,-1.1c0.8,-0.7 1.3,-1.7 1.3,-2.9c0,-1.3 -0.4,-2.4 -1.2,-3.1c-0.8,-0.7 -1.9,-1.1 -3.4,-1.1l-4.4,0l0,8.2l-0.1,0z" class="st2"/>
  </g>
  <path id="svg_55" fill="#F5F6FA" d="m238.9,366.1l0,-87.3c0,-12.4 10,-22.4 22.4,-22.4l763,0c12.4,0 22.4,10 22.4,22.4l0,87.3c0,12.4 -10,22.4 -22.4,22.4l-763,0c-12.4,0 -22.4,-10 -22.4,-22.4z" class="st3"/>
  <path id="svg_56" fill="#41B883" d="m1020.7,381.2l-86.7,0c-9.9,0 -17.9,-8 -17.9,-17.9l0,-83c0,-9.9 8,-17.9 17.9,-17.9l86.7,0c9.9,0 17.9,8 17.9,17.9l0,83c0,9.9 -8,17.9 -17.9,17.9z" class="st1"/>
  <g id="svg_57">
   <path id="svg_58" fill="#D8D7DB" d="m278.8,320.9c-3.5,-1 -6,-2.2 -7.6,-3.7s-2.4,-3.2 -2.4,-5.4c0,-2.4 1,-4.4 2.9,-6s4.4,-2.4 7.5,-2.4c2.1,0 4,0.4 5.6,1.2c1.6,0.8 2.9,1.9 3.8,3.4s1.4,3 1.4,4.7l-4.1,0c0,-1.9 -0.6,-3.3 -1.8,-4.4s-2.8,-1.6 -5,-1.6c-2,0 -3.5,0.4 -4.7,1.3c-1.1,0.9 -1.7,2.1 -1.7,3.7c0,1.3 0.5,2.3 1.6,3.2s2.9,1.7 5.4,2.4c2.5,0.7 4.5,1.5 6,2.4c1.4,0.9 2.5,1.9 3.2,3s1,2.5 1,4.1c0,2.5 -1,4.5 -2.9,6s-4.5,2.2 -7.8,2.2c-2.1,0 -4.1,-0.4 -5.9,-1.2c-1.8,-0.8 -3.2,-1.9 -4.2,-3.3s-1.5,-3 -1.5,-4.8l4.1,0c0,1.9 0.7,3.3 2.1,4.4s3.2,1.6 5.5,1.6c2.1,0 3.8,-0.4 4.9,-1.3s1.7,-2.1 1.7,-3.6s-0.5,-2.7 -1.6,-3.5c-0.8,-0.8 -2.7,-1.6 -5.5,-2.4z" class="st4"/>
   <path id="svg_59" fill="#D8D7DB" d="m304.2,335c-3.1,0 -5.6,-1 -7.5,-3s-2.9,-4.7 -2.9,-8.1l0,-0.7c0,-2.3 0.4,-4.3 1.3,-6c0.9,-1.8 2.1,-3.2 3.6,-4.2s3.2,-1.5 5,-1.5c3,0 5.3,1 6.9,2.9s2.5,4.7 2.5,8.4l0,1.6l-15.4,0c0.1,2.2 0.7,4.1 2,5.4c1.3,1.4 2.9,2.1 4.8,2.1c1.4,0 2.5,-0.3 3.5,-0.8c1,-0.6 1.8,-1.3 2.5,-2.2l2.4,1.9c-2,2.7 -4.9,4.2 -8.7,4.2zm-0.5,-20.4c-1.6,0 -2.9,0.6 -4,1.7s-1.7,2.7 -2,4.8l11.4,0l0,-0.3c-0.1,-2 -0.6,-3.5 -1.6,-4.6c-0.9,-1.1 -2.1,-1.6 -3.8,-1.6z" class="st4"/>
   <path id="svg_60" fill="#D8D7DB" d="m331.6,334.6c-0.2,-0.4 -0.4,-1.2 -0.5,-2.4c-1.8,1.9 -4,2.8 -6.5,2.8c-2.2,0 -4.1,-0.6 -5.5,-1.9s-2.2,-2.9 -2.2,-4.8c0,-2.4 0.9,-4.2 2.7,-5.5c1.8,-1.3 4.3,-2 7.6,-2l3.8,0l0,-1.8c0,-1.4 -0.4,-2.4 -1.2,-3.2c-0.8,-0.8 -2,-1.2 -3.6,-1.2c-1.4,0 -2.6,0.4 -3.5,1.1s-1.4,1.5 -1.4,2.5l-3.9,0c0,-1.1 0.4,-2.2 1.2,-3.3c0.8,-1.1 1.9,-1.9 3.3,-2.5s2.9,-0.9 4.6,-0.9c2.6,0 4.7,0.7 6.2,2s2.3,3.1 2.3,5.4l0,10.5c0,2.1 0.3,3.8 0.8,5l0,0.3l-4.2,-0.1l0,0zm-6.4,-3c1.2,0 2.4,-0.3 3.5,-0.9s1.9,-1.5 2.4,-2.5l0,-4.7l-3,0c-4.8,0 -7.2,1.4 -7.2,4.2c0,1.2 0.4,2.2 1.2,2.9c0.8,0.7 1.8,1 3.1,1z" class="st4"/>
   <path id="svg_61" fill="#D8D7DB" d="m352,315.3c-0.6,-0.1 -1.2,-0.1 -1.9,-0.1c-2.6,0 -4.3,1.1 -5.2,3.3l0,16.2l-3.9,0l0,-22.8l3.8,0l0.1,2.6c1.3,-2 3.1,-3 5.4,-3c0.8,0 1.3,0.1 1.7,0.3l0,3.5z" class="st4"/>
   <path id="svg_62" fill="#D8D7DB" d="m364.3,331.8c1.4,0 2.6,-0.4 3.6,-1.3s1.6,-1.9 1.7,-3.2l3.7,0c-0.1,1.3 -0.5,2.5 -1.3,3.7s-1.9,2.1 -3.3,2.8c-1.4,0.7 -2.8,1.1 -4.4,1.1c-3.1,0 -5.6,-1 -7.4,-3.1s-2.7,-4.9 -2.7,-8.5l0,-0.7c0,-2.2 0.4,-4.2 1.2,-5.9s2,-3.1 3.5,-4c1.5,-1 3.3,-1.4 5.4,-1.4c2.6,0 4.7,0.8 6.4,2.3s2.6,3.5 2.7,6l-3.7,0c-0.1,-1.5 -0.7,-2.7 -1.7,-3.6s-2.2,-1.4 -3.7,-1.4c-2,0 -3.5,0.7 -4.6,2.1s-1.6,3.5 -1.6,6.2l0,0.7c0,2.6 0.5,4.6 1.6,6.1c1.1,1.4 2.6,2.1 4.6,2.1z" class="st4"/>
   <path id="svg_63" fill="#D8D7DB" d="m381.6,314.6c1.7,-2.1 4,-3.2 6.7,-3.2c4.8,0 7.2,2.7 7.3,8.1l0,15l-3.9,0l0,-15.1c0,-1.6 -0.4,-2.9 -1.1,-3.6c-0.7,-0.8 -1.9,-1.2 -3.4,-1.2c-1.3,0 -2.4,0.3 -3.3,1c-1,0.7 -1.7,1.6 -2.2,2.6l0,16.2l-3.9,0l0,-32.3l3.9,0l0,12.5l-0.1,0z" class="st4"/>
   <path id="svg_64" fill="#D8D7DB" d="m401.6,332.5c0,-0.7 0.2,-1.2 0.6,-1.7c0.4,-0.4 1,-0.7 1.8,-0.7s1.4,0.2 1.8,0.7s0.6,1 0.6,1.7c0,0.6 -0.2,1.2 -0.6,1.6s-1,0.7 -1.8,0.7s-1.4,-0.2 -1.8,-0.7c-0.4,-0.4 -0.6,-0.9 -0.6,-1.6z" class="st4"/>
   <path id="svg_65" fill="#D8D7DB" d="m412.9,332.5c0,-0.7 0.2,-1.2 0.6,-1.7s1,-0.7 1.8,-0.7s1.4,0.2 1.8,0.7c0.4,0.4 0.6,1 0.6,1.7c0,0.6 -0.2,1.2 -0.6,1.6s-1,0.7 -1.8,0.7s-1.4,-0.2 -1.8,-0.7c-0.4,-0.4 -0.6,-0.9 -0.6,-1.6z" class="st4"/>
   <path id="svg_66" fill="#D8D7DB" d="m424.2,332.5c0,-0.7 0.2,-1.2 0.6,-1.7c0.4,-0.4 1,-0.7 1.8,-0.7s1.4,0.2 1.8,0.7c0.4,0.4 0.6,1 0.6,1.7c0,0.6 -0.2,1.2 -0.6,1.6s-1,0.7 -1.8,0.7s-1.4,-0.2 -1.8,-0.7c-0.4,-0.4 -0.6,-0.9 -0.6,-1.6z" class="st4"/>
  </g>
  <g id="svg_79">
   <g id="svg_80">
    <path id="svg_81" fill="#FAFAFA" d="m974.4,341.6c-12.6,0 -22.9,-10.3 -22.9,-22.9s10.3,-22.9 22.9,-22.9c12.6,0 22.9,10.3 22.9,22.9c0,12.6 -10.2,22.9 -22.9,22.9zm0,-40.7c-9.8,0 -17.8,8 -17.8,17.8s8,17.8 17.8,17.8s17.8,-8 17.8,-17.8c0,-9.9 -8,-17.8 -17.8,-17.8z" class="st6"/>
   </g>
   <g id="svg_82">
    <path id="svg_83" fill="#FAFAFA" d="m999.9,346.7c-0.7,0 -1.3,-0.2 -1.8,-0.7l-11.1,-11.1c-1,-1 -1,-2.6 0,-3.6s2.6,-1 3.6,0l11.1,11.1c1,1 1,2.6 0,3.6c-0.5,0.4 -1.2,0.7 -1.8,0.7z" class="st6"/>
   </g>
  </g>
  <g id="svg_104">
   <circle id="svg_105" fill="#283252" r="3" cy="594.4" cx="879.4" class="st5"/>
   <circle id="svg_106" fill="#283252" r="3" cy="603.9" cx="879.4" class="st5"/>
   <circle id="svg_107" fill="#283252" r="3" cy="613.4" cx="879.4" class="st5"/>
  </g>
  <path id="svg_108" fill="#41B883" d="m162.9,1072.4l-6.4,0c-8.3,0 -15,-6.7 -15,-15l0,-177.3c0,-8.3 6.7,-15 15,-15l6.4,0c8.3,0 15,6.7 15,15l0,177.3c0.1,8.3 -6.7,15 -15,15z" class="st1"/>
  <path id="svg_109" fill="#41B883" d="m239.7,1072.4l-6.4,0c-8.3,0 -15,-6.7 -15,-15l0,-318c0,-8.3 6.7,-15 15,-15l6.4,0c8.3,0 15,6.7 15,15l0,317.9c0,8.4 -6.7,15.1 -15,15.1z" class="st1"/>
  <path id="svg_110" fill="#41B883" d="m316.4,1072.4l-6.4,0c-8.3,0 -15,-6.7 -15,-15l0,-273.1c0,-8.3 6.7,-15 15,-15l6.4,0c8.3,0 15,6.7 15,15l0,273.1c0,8.3 -6.7,15 -15,15z" class="st1"/>
  <path id="svg_111" fill="#41B883" d="m393.1,1072.4l-6.4,0c-8.3,0 -15,-6.7 -15,-15l0,-224.6c0,-8.3 6.7,-15 15,-15l6.4,0c8.3,0 15,6.7 15,15l0,224.6c0,8.3 -6.7,15 -15,15z" class="st1"/>
  <path id="svg_112" fill="#41B883" d="m469.8,1072.4l-6.4,0c-8.3,0 -15,-6.7 -15,-15l0,-200.4c0,-8.3 6.7,-15 15,-15l6.4,0c8.3,0 15,6.7 15,15l0,200.3c0.1,8.4 -6.7,15.1 -15,15.1z" class="st1"/>
  <path id="svg_113" fill="#41B883" d="m546.6,1072.4l-6.4,0c-8.3,0 -15,-6.7 -15,-15l0,-259.8c0,-8.3 6.7,-15 15,-15l6.4,0c8.3,0 15,6.7 15,15l0,259.7c0,8.4 -6.7,15.1 -15,15.1z" class="st1"/>
  <path id="svg_114" fill="#41B883" d="m623.3,1072.4l-6.4,0c-8.3,0 -15,-6.7 -15,-15l0,-330.1c0,-8.3 6.7,-15 15,-15l6.4,0c8.3,0 15,6.7 15,15l0,330.1c0,8.3 -6.7,15 -15,15z" class="st1"/>
  <path id="svg_115" fill="#41B883" d="m700,1072.4l-6.4,0c-8.3,0 -15,-6.7 -15,-15l0,-293.7c0,-8.3 6.7,-15 15,-15l6.4,0c8.3,0 15,6.7 15,15l0,293.7c0.1,8.3 -6.7,15 -15,15z" class="st1"/>
  <g id="svg_116">
   <g id="svg_117">
    <path id="svg_118" fill="#4DD670" d="m783,840.8c-0.9,0 -1.9,-0.4 -2.6,-1.1c-1.4,-1.4 -1.4,-3.7 0,-5.1l27.3,-27.3c1.4,-1.4 3.7,-1.4 5.1,0l15.6,15.6l32,-32c1.4,-1.4 3.7,-1.4 5.1,0c1.4,1.4 1.4,3.7 0,5.1l-34.5,34.6c-1.4,1.4 -3.7,1.4 -5.1,0l-15.7,-15.6l-24.7,24.7c-0.7,0.7 -1.6,1.1 -2.5,1.1z" class="st8"/>
   </g>
   <g id="svg_119">
    <path id="svg_120" fill="#4DD670" d="m863,819c-2,0 -3.6,-1.6 -3.6,-3.6l0,-18.2l-18.2,0c-2,0 -3.6,-1.6 -3.6,-3.6s1.6,-3.6 3.6,-3.6l21.8,0c2,0 3.6,1.6 3.6,3.6l0,21.8c0,1.9 -1.6,3.6 -3.6,3.6z" class="st8"/>
   </g>
  </g>
  <g id="svg_121">
   <path id="svg_122" fill="#4DD670" d="m790.5,879.2l6.1,0l0,3.5l-6.1,0l0,6.9l-3.8,0l0,-6.9l-6.1,0l0,-3.5l6.1,0l0,-6.5l3.8,0l0,6.5z" class="st8"/>
   <path id="svg_123" fill="#4DD670" d="m804.4,878.6l2.4,0c1.2,0 2.1,-0.3 2.8,-0.9c0.7,-0.6 1,-1.5 1,-2.6s-0.3,-2 -0.9,-2.6c-0.6,-0.6 -1.5,-0.9 -2.7,-0.9c-1,0 -1.9,0.3 -2.6,0.9c-0.7,0.6 -1,1.4 -1,2.4l-3.9,0c0,-1.2 0.3,-2.3 1,-3.3s1.5,-1.7 2.7,-2.3s2.4,-0.8 3.8,-0.8c2.3,0 4.1,0.6 5.5,1.8s2,2.8 2,4.9c0,1 -0.3,2 -1,2.9s-1.5,1.6 -2.6,2.1c1.3,0.4 2.3,1.1 2.9,2.1s1,2.1 1,3.4c0,2.1 -0.7,3.8 -2.1,5s-3.3,1.9 -5.7,1.9c-2.2,0 -4.1,-0.6 -5.5,-1.8s-2.1,-2.8 -2.1,-4.8l3.9,0c0,1 0.3,1.9 1,2.5s1.6,1 2.8,1s2.2,-0.3 2.8,-1c0.7,-0.6 1,-1.6 1,-2.8s-0.4,-2.2 -1.1,-2.8c-0.7,-0.7 -1.8,-1 -3.2,-1l-2.3,0l0.1,-3.3l0,0z" class="st8"/>
   <path id="svg_124" fill="#4DD670" d="m821.6,887.9c0.7,0 1.3,0.2 1.7,0.6c0.4,0.4 0.6,0.9 0.6,1.5s-0.2,1.1 -0.6,1.5c-0.4,0.4 -1,0.6 -1.7,0.6s-1.2,-0.2 -1.6,-0.6c-0.4,-0.4 -0.6,-0.9 -0.6,-1.5s0.2,-1.1 0.6,-1.5c0.3,-0.4 0.9,-0.6 1.6,-0.6z" class="st8"/>
   <path id="svg_125" fill="#4DD670" d="m841.6,883.7l2.9,0l0,3.1l-2.9,0l0,5.2l-3.9,0l0,-5.2l-10.1,0l-0.1,-2.4l10,-15.7l4,0l0.1,15l0,0zm-10,0l6.1,0l0,-9.7l-0.3,0.5l-5.8,9.2z" class="st8"/>
   <path id="svg_126" fill="#4DD670" d="m847.3,873.2c0,-1.4 0.5,-2.6 1.4,-3.5s2.1,-1.4 3.6,-1.4s2.7,0.5 3.6,1.4s1.4,2.1 1.4,3.5l0,1.2c0,1.4 -0.5,2.5 -1.4,3.4s-2.1,1.3 -3.6,1.3c-1.4,0 -2.6,-0.4 -3.6,-1.3s-1.4,-2.1 -1.4,-3.6l0,-1zm2.7,1.2c0,0.7 0.2,1.3 0.6,1.8c0.4,0.5 1,0.7 1.6,0.7c0.7,0 1.2,-0.2 1.6,-0.7c0.4,-0.5 0.6,-1.1 0.6,-1.9l0,-1.2c0,-0.7 -0.2,-1.3 -0.6,-1.8c-0.4,-0.5 -1,-0.7 -1.6,-0.7c-0.7,0 -1.2,0.2 -1.6,0.7c-0.4,0.5 -0.6,1.1 -0.6,1.8l0,1.3zm3.1,15.8l-2,-1.2l11.4,-18.2l2,1.2l-11.4,18.2zm5.4,-3.9c0,-1.4 0.5,-2.6 1.4,-3.5s2.1,-1.3 3.5,-1.3s2.6,0.4 3.6,1.3s1.4,2.1 1.4,3.6l0,1.1c0,1.4 -0.4,2.5 -1.3,3.4c-0.9,0.9 -2.1,1.4 -3.6,1.4s-2.7,-0.4 -3.6,-1.3c-0.9,-0.9 -1.4,-2.1 -1.4,-3.5l0,-1.2l0,0zm2.7,1.2c0,0.7 0.2,1.3 0.6,1.8c0.4,0.5 1,0.7 1.6,0.7c0.7,0 1.2,-0.2 1.6,-0.7c0.4,-0.4 0.6,-1.1 0.6,-1.9l0,-1.2c0,-0.7 -0.2,-1.3 -0.6,-1.8c-0.4,-0.4 -0.9,-0.7 -1.6,-0.7c-0.7,0 -1.2,0.2 -1.6,0.7c-0.4,0.4 -0.6,1.1 -0.6,1.9l0,1.2z" class="st8"/>
  </g>
  <text font-style="normal" font-weight="normal" xml:space="preserve" text-anchor="start" font-family="'Roboto'" font-size="32" stroke-width="0" id="svg_142" y="620" x="135" fill="#283252">Rewards</text>
 </g>
</svg>
